<?xml version="1.0" encoding="UTF-8" standalone="no"?>
<!-- Created with Inkscape (http://www.inkscape.org/) -->

<svg
   xmlns:dc="http://purl.org/dc/elements/1.1/"
   xmlns:cc="http://creativecommons.org/ns#"
   xmlns:rdf="http://www.w3.org/1999/02/22-rdf-syntax-ns#"
   xmlns:svg="http://www.w3.org/2000/svg"
   xmlns="http://www.w3.org/2000/svg"
   xmlns:sodipodi="http://sodipodi.sourceforge.net/DTD/sodipodi-0.dtd"
   xmlns:inkscape="http://www.inkscape.org/namespaces/inkscape"
   width="499.98526"
   height="500"
   viewBox="0 0 499.98525 499.99999"
   id="svg2"
   version="1.1"
   inkscape:version="0.91 r13725"
   sodipodi:docname="ivy-logo.svg">
  <title
     id="title4506">Ivy Image Viewer</title>
  <defs
     id="defs4" />
  <sodipodi:namedview
     id="base"
     pagecolor="#ffffff"
     bordercolor="#666666"
     borderopacity="1.0"
     inkscape:pageopacity="0"
     inkscape:pageshadow="2"
     inkscape:zoom="0.7"
     inkscape:cx="85.459872"
     inkscape:cy="223.91154"
     inkscape:document-units="px"
     inkscape:current-layer="layer1"
     showgrid="false"
     inkscape:window-width="1920"
     inkscape:window-height="1016"
     inkscape:window-x="0"
     inkscape:window-y="27"
     inkscape:window-maximized="1"
     borderlayer="true"
     fit-margin-top="0"
     fit-margin-left="0"
     fit-margin-right="0"
     fit-margin-bottom="0"
     units="px" />
  <metadata
     id="metadata7">
    <rdf:RDF>
      <cc:Work
         rdf:about="">
        <dc:format>image/svg+xml</dc:format>
        <dc:type
           rdf:resource="http://purl.org/dc/dcmitype/StillImage" />
        <dc:title>Ivy Image Viewer</dc:title>
        <dc:date>2015-10-21</dc:date>
        <dc:creator>
          <cc:Agent>
            <dc:title>Andrew Toskin</dc:title>
          </cc:Agent>
        </dc:creator>
        <dc:rights>
          <cc:Agent>
            <dc:title></dc:title>
          </cc:Agent>
        </dc:rights>
        <dc:subject>
          <rdf:Bag>
            <rdf:li>ivy</rdf:li>
            <rdf:li>image viewer</rdf:li>
            <rdf:li>logo</rdf:li>
          </rdf:Bag>
        </dc:subject>
        <cc:license
           rdf:resource="https://gnu.org/licenses/gpl.html" />
      </cc:Work>
    </rdf:RDF>
  </metadata>
  <g
     inkscape:label="Layer 1"
     inkscape:groupmode="layer"
     id="layer1"
     transform="translate(-232.24019,-120.69954)">
    <path
       style="fill:#3ac319;fill-opacity:1;fill-rule:evenodd;stroke:none;stroke-width:1px;stroke-linecap:butt;stroke-linejoin:miter;stroke-opacity:1"
       d="M 600.7503,264.80624 C 555.92821,239.39257 344.32807,114.05633 331.91021,351.60775 l 11.19381,7.8387 C 357.62247,151.74493 494.09867,226.71904 586.32842,270.963 Z"
       id="path4538"
       inkscape:connector-curvature="0"
       sodipodi:nodetypes="ccccc" />
    <g
       id="g4205-7-4-30-14"
       transform="matrix(1.1138332,-0.55090529,0.57867216,1.0603872,-630.0826,228.59614)">
      <path
         sodipodi:nodetypes="cccccccccc"
         inkscape:connector-curvature="0"
         id="path4201-7-9-4-34"
         d="m 664.4446,376.54129 c 6.17281,1.14239 11.91587,-3.38264 11.42857,-13.03572 -9.21946,-0.53307 -2.77111,-20.96788 -10,-25.89285 -8.62907,3.93466 -6.0179,9.76197 -11.875,12.85714 -7.19215,-6.49815 -14.89469,-16.85438 -21.875,-17.05357 -0.32349,5.35598 -0.21383,19.82674 6.60714,26.33928 -2.06607,5.47887 -12.54734,3.84982 -17.5,11.78571 3.50689,6.89259 22.55488,6.11118 22.85715,16.60715 7.42206,-0.65208 16.87656,3.65499 18.75,-10.53571 z"
         style="fill:#06b000;fill-opacity:1;fill-rule:evenodd;stroke:#000000;stroke-width:1px;stroke-linecap:butt;stroke-linejoin:miter;stroke-opacity:1" />
      <path
         sodipodi:nodetypes="cccccccccccccccccccccccccccc"
         inkscape:connector-curvature="0"
         id="path4203-9-5-2-2"
         d="m 682.03389,390.29129 c -0.28869,0.89371 -0.32374,1.93235 -3.83929,0.98214 -5.91895,-3.85037 -9.41564,-10.60698 -15.98214,-15.44643 l -18.48215,-1.875 c -3.17588,2.59314 -5.64309,3.06024 -8.39285,4.375 2.53193,-1.57738 5.70669,-3.15476 6.69643,-4.73214 l -19.73215,-2.32143 c 7.66295,-0.71386 12.74644,0.0462 18.92857,0.17857 -2.19556,-2.26361 -6.05167,-4.11208 -9.10714,-6.16071 4.2655,2.0472 8.65025,4.0149 12.23214,6.51785 l 15.80358,1.69643 -11.25,-12.76785 c -3.04606,0.9303 -5.3986,0.64128 -7.5,-0.0893 2.34775,-0.21092 5.20782,-0.0376 6.69642,-0.89286 -6.46672,-8.30662 -10.11109,-17.01644 -15.08928,-25.53571 5.65413,8.30451 10.83923,17.31258 16.96428,24.91071 l 2.85715,-7.5 c 0.30639,3.04247 -0.61305,5.73471 -1.96429,8.30357 l 10.53572,12.41072 c 1.3161,-5.56798 0.0101,-13.14719 0.44642,-19.375 -2.24964,-1.45265 -3.06471,-3.98123 -4.46428,-6.07143 l 4.64286,4.91071 c 0.3217,-3.71456 0.82296,-7.60868 2.32142,-12.5 l -1.16071,12.14286 c 1.27988,-0.26818 3.98751,-4.34368 5.98214,-6.51786 -1.84408,2.8583 -3.14676,6.258 -5.625,8.48215 l -0.26785,21.42857 c 5.69688,5.5913 12.11734,9.79259 18.75,15.44644 z"
         style="fill:#79c800;fill-opacity:1;fill-rule:evenodd;stroke:none;stroke-width:1px;stroke-linecap:butt;stroke-linejoin:miter;stroke-opacity:1" />
    </g>
    <path
       style="opacity:1;fill:#f9df00;fill-opacity:1;stroke:none;stroke-width:1;stroke-linecap:round;stroke-linejoin:miter;stroke-miterlimit:4;stroke-dasharray:none;stroke-opacity:1"
       d="m 254.43776,284.29119 c -15.2123,-35.63526 152.62624,30.04366 178.8145,-36.4888 25.5879,66.73385 194.56641,0.42676 178.81471,36.4888 -3.34792,7.66477 15.73883,6.68523 15.73883,14.98929 0,26.69428 -16.77414,59.03141 0,80.08283 11.83552,14.85345 9.96962,19.64491 0,32.00686 -15.46787,19.17957 0,63.81858 0,95.72786 0,8.30405 -19.21795,7.37776 -15.73883,14.98928 16.15439,35.34202 -150.89099,-31.05117 -178.81471,35.60907 -26.29783,-66.87636 -193.61184,-0.70454 -178.8145,-35.60907 3.26331,-7.69765 -15.73883,-6.68523 -15.73883,-14.98928 -2e-5,-31.90928 20.34417,-58.7068 -5e-5,-95.72786 -6.72962,-12.24609 -10.30948,-17.48875 -2e-5,-32.00686 12.90005,-18.16625 0.0227,-53.37232 -3e-5,-80.08283 -0.008,-8.30406 19.02181,-7.29904 15.73893,-14.98929 z"
       id="rect4508"
       inkscape:connector-curvature="0"
       sodipodi:nodetypes="scsssssscssssss" />
    <rect
       style="opacity:1;fill:#00f9f9;fill-opacity:1;stroke:#000000;stroke-width:5;stroke-linecap:round;stroke-linejoin:miter;stroke-miterlimit:4;stroke-dasharray:none;stroke-opacity:1"
       id="rect4529"
       width="314.44586"
       height="176.23468"
       x="276.10278"
       y="315.07193"
       ry="0" />
    <path
       style="fill:#3ac319;fill-opacity:1;fill-rule:evenodd;stroke:none;stroke-width:1px;stroke-linecap:butt;stroke-linejoin:miter;stroke-opacity:1"
       d="m 265.3254,536.57236 c -6.29817,-206.06638 344.88598,97.09177 313.17792,-55.526 -40.8614,-69.43474 138.1216,-132.21412 -1.26793,-216.06855 l 22.82267,-1.20708 c 127.48345,63.62982 -62.63463,185.21603 1.26794,226.93233 5.47842,166.33672 -335.95318,-146.78171 -334.73268,65.18269 z"
       id="path4536"
       inkscape:connector-curvature="0"
       sodipodi:nodetypes="ccccccc" />
    <g
       id="g4205-7-4"
       transform="matrix(-0.5388496,1.0792383,-1.1336344,-0.51299356,1406.6246,-41.525633)">
      <path
         sodipodi:nodetypes="cccccccccc"
         inkscape:connector-curvature="0"
         id="path4201-7-9"
         d="m 664.4446,376.54129 c 6.17281,1.14239 11.91587,-3.38264 11.42857,-13.03572 -9.21946,-0.53307 -2.77111,-20.96788 -10,-25.89285 -8.62907,3.93466 -6.0179,9.76197 -11.875,12.85714 -7.19215,-6.49815 -14.89469,-16.85438 -21.875,-17.05357 -0.32349,5.35598 -0.21383,19.82674 6.60714,26.33928 -2.06607,5.47887 -12.54734,3.84982 -17.5,11.78571 3.50689,6.89259 22.55488,6.11118 22.85715,16.60715 7.42206,-0.65208 16.87656,3.65499 18.75,-10.53571 z"
         style="fill:#06b000;fill-opacity:1;fill-rule:evenodd;stroke:#000000;stroke-width:1px;stroke-linecap:butt;stroke-linejoin:miter;stroke-opacity:1" />
      <path
         sodipodi:nodetypes="cccccccccccccccccccccccccccc"
         inkscape:connector-curvature="0"
         id="path4203-9-5"
         d="m 682.03389,390.29129 c -0.28869,0.89371 -0.32374,1.93235 -3.83929,0.98214 -5.91895,-3.85037 -9.41564,-10.60698 -15.98214,-15.44643 l -18.48215,-1.875 c -3.17588,2.59314 -5.64309,3.06024 -8.39285,4.375 2.53193,-1.57738 5.70669,-3.15476 6.69643,-4.73214 l -19.73215,-2.32143 c 7.66295,-0.71386 12.74644,0.0462 18.92857,0.17857 -2.19556,-2.26361 -6.05167,-4.11208 -9.10714,-6.16071 4.2655,2.0472 8.65025,4.0149 12.23214,6.51785 l 15.80358,1.69643 -11.25,-12.76785 c -3.04606,0.9303 -5.3986,0.64128 -7.5,-0.0893 2.34775,-0.21092 5.20782,-0.0376 6.69642,-0.89286 -6.46672,-8.30662 -10.11109,-17.01644 -15.08928,-25.53571 5.65413,8.30451 10.83923,17.31258 16.96428,24.91071 l 2.85715,-7.5 c 0.30639,3.04247 -0.61305,5.73471 -1.96429,8.30357 l 10.53572,12.41072 c 1.3161,-5.56798 0.0101,-13.14719 0.44642,-19.375 -2.24964,-1.45265 -3.06471,-3.98123 -4.46428,-6.07143 l 4.64286,4.91071 c 0.3217,-3.71456 0.82296,-7.60868 2.32142,-12.5 l -1.16071,12.14286 c 1.27988,-0.26818 3.98751,-4.34368 5.98214,-6.51786 -1.84408,2.8583 -3.14676,6.258 -5.625,8.48215 l -0.26785,21.42857 c 5.69688,5.5913 12.11734,9.79259 18.75,15.44644 z"
         style="fill:#79c800;fill-opacity:1;fill-rule:evenodd;stroke:none;stroke-width:1px;stroke-linecap:butt;stroke-linejoin:miter;stroke-opacity:1" />
    </g>
    <g
       id="g4205-7-4-9"
       transform="matrix(-1.2541456,0.04858672,-0.05103558,-1.1939668,1453.9165,966.31052)"
       inkscape:transform-center-x="-3.4433708"
       inkscape:transform-center-y="-31.682969">
      <path
         sodipodi:nodetypes="cccccccccc"
         inkscape:connector-curvature="0"
         id="path4201-7-9-7"
         d="m 664.4446,376.54129 c 6.17281,1.14239 11.91587,-3.38264 11.42857,-13.03572 -9.21946,-0.53307 -2.77111,-20.96788 -10,-25.89285 -8.62907,3.93466 -6.0179,9.76197 -11.875,12.85714 -7.19215,-6.49815 -14.89469,-16.85438 -21.875,-17.05357 -0.32349,5.35598 -0.21383,19.82674 6.60714,26.33928 -2.06607,5.47887 -12.54734,3.84982 -17.5,11.78571 3.50689,6.89259 22.55488,6.11118 22.85715,16.60715 7.42206,-0.65208 16.87656,3.65499 18.75,-10.53571 z"
         style="fill:#06b000;fill-opacity:1;fill-rule:evenodd;stroke:#000000;stroke-width:1px;stroke-linecap:butt;stroke-linejoin:miter;stroke-opacity:1" />
      <path
         sodipodi:nodetypes="cccccccccccccccccccccccccccc"
         inkscape:connector-curvature="0"
         id="path4203-9-5-8"
         d="m 682.03389,390.29129 c -0.28869,0.89371 -0.32374,1.93235 -3.83929,0.98214 -5.91895,-3.85037 -9.41564,-10.60698 -15.98214,-15.44643 l -18.48215,-1.875 c -3.17588,2.59314 -5.64309,3.06024 -8.39285,4.375 2.53193,-1.57738 5.70669,-3.15476 6.69643,-4.73214 l -19.73215,-2.32143 c 7.66295,-0.71386 12.74644,0.0462 18.92857,0.17857 -2.19556,-2.26361 -6.05167,-4.11208 -9.10714,-6.16071 4.2655,2.0472 8.65025,4.0149 12.23214,6.51785 l 15.80358,1.69643 -11.25,-12.76785 c -3.04606,0.9303 -5.3986,0.64128 -7.5,-0.0893 2.34775,-0.21092 5.20782,-0.0376 6.69642,-0.89286 -6.46672,-8.30662 -10.11109,-17.01644 -15.08928,-25.53571 5.65413,8.30451 10.83923,17.31258 16.96428,24.91071 l 2.85715,-7.5 c 0.30639,3.04247 -0.61305,5.73471 -1.96429,8.30357 l 10.53572,12.41072 c 1.3161,-5.56798 0.0101,-13.14719 0.44642,-19.375 -2.24964,-1.45265 -3.06471,-3.98123 -4.46428,-6.07143 l 4.64286,4.91071 c 0.3217,-3.71456 0.82296,-7.60868 2.32142,-12.5 l -1.16071,12.14286 c 1.27988,-0.26818 3.98751,-4.34368 5.98214,-6.51786 -1.84408,2.8583 -3.14676,6.258 -5.625,8.48215 l -0.26785,21.42857 c 5.69688,5.5913 12.11734,9.79259 18.75,15.44644 z"
         style="fill:#79c800;fill-opacity:1;fill-rule:evenodd;stroke:none;stroke-width:1px;stroke-linecap:butt;stroke-linejoin:miter;stroke-opacity:1" />
    </g>
    <g
       id="g4205-7-4-5"
       transform="matrix(-0.56728857,-1.0659476,1.1196738,-0.54006794,496.24294,1473.7989)">
      <path
         sodipodi:nodetypes="cccccccccc"
         inkscape:connector-curvature="0"
         id="path4201-7-9-3"
         d="m 664.4446,376.54129 c 6.17281,1.14239 11.91587,-3.38264 11.42857,-13.03572 -9.21946,-0.53307 -2.77111,-20.96788 -10,-25.89285 -8.62907,3.93466 -6.0179,9.76197 -11.875,12.85714 -7.19215,-6.49815 -14.89469,-16.85438 -21.875,-17.05357 -0.32349,5.35598 -0.21383,19.82674 6.60714,26.33928 -2.06607,5.47887 -12.54734,3.84982 -17.5,11.78571 3.50689,6.89259 22.55488,6.11118 22.85715,16.60715 7.42206,-0.65208 16.87656,3.65499 18.75,-10.53571 z"
         style="fill:#06b000;fill-opacity:1;fill-rule:evenodd;stroke:#000000;stroke-width:1px;stroke-linecap:butt;stroke-linejoin:miter;stroke-opacity:1" />
      <path
         sodipodi:nodetypes="cccccccccccccccccccccccccccc"
         inkscape:connector-curvature="0"
         id="path4203-9-5-1"
         d="m 682.03389,390.29129 c -0.28869,0.89371 -0.32374,1.93235 -3.83929,0.98214 -5.91895,-3.85037 -9.41564,-10.60698 -15.98214,-15.44643 l -18.48215,-1.875 c -3.17588,2.59314 -5.64309,3.06024 -8.39285,4.375 2.53193,-1.57738 5.70669,-3.15476 6.69643,-4.73214 l -19.73215,-2.32143 c 7.66295,-0.71386 12.74644,0.0462 18.92857,0.17857 -2.19556,-2.26361 -6.05167,-4.11208 -9.10714,-6.16071 4.2655,2.0472 8.65025,4.0149 12.23214,6.51785 l 15.80358,1.69643 -11.25,-12.76785 c -3.04606,0.9303 -5.3986,0.64128 -7.5,-0.0893 2.34775,-0.21092 5.20782,-0.0376 6.69642,-0.89286 -6.46672,-8.30662 -10.11109,-17.01644 -15.08928,-25.53571 5.65413,8.30451 10.83923,17.31258 16.96428,24.91071 l 2.85715,-7.5 c 0.30639,3.04247 -0.61305,5.73471 -1.96429,8.30357 l 10.53572,12.41072 c 1.3161,-5.56798 0.0101,-13.14719 0.44642,-19.375 -2.24964,-1.45265 -3.06471,-3.98123 -4.46428,-6.07143 l 4.64286,4.91071 c 0.3217,-3.71456 0.82296,-7.60868 2.32142,-12.5 l -1.16071,12.14286 c 1.27988,-0.26818 3.98751,-4.34368 5.98214,-6.51786 -1.84408,2.8583 -3.14676,6.258 -5.625,8.48215 l -0.26785,21.42857 c 5.69688,5.5913 12.11734,9.79259 18.75,15.44644 z"
         style="fill:#79c800;fill-opacity:1;fill-rule:evenodd;stroke:none;stroke-width:1px;stroke-linecap:butt;stroke-linejoin:miter;stroke-opacity:1" />
    </g>
    <g
       id="g4205-7-4-1"
       transform="matrix(-0.25778391,-1.1694825,1.228427,-0.24541448,173.74749,1410.3548)">
      <path
         sodipodi:nodetypes="cccccccccc"
         inkscape:connector-curvature="0"
         id="path4201-7-9-2"
         d="m 664.4446,376.54129 c 6.17281,1.14239 11.91587,-3.38264 11.42857,-13.03572 -9.21946,-0.53307 -2.77111,-20.96788 -10,-25.89285 -8.62907,3.93466 -6.0179,9.76197 -11.875,12.85714 -7.19215,-6.49815 -14.89469,-16.85438 -21.875,-17.05357 -0.32349,5.35598 -0.21383,19.82674 6.60714,26.33928 -2.06607,5.47887 -12.54734,3.84982 -17.5,11.78571 3.50689,6.89259 22.55488,6.11118 22.85715,16.60715 7.42206,-0.65208 16.87656,3.65499 18.75,-10.53571 z"
         style="fill:#06b000;fill-opacity:1;fill-rule:evenodd;stroke:#000000;stroke-width:1px;stroke-linecap:butt;stroke-linejoin:miter;stroke-opacity:1" />
      <path
         sodipodi:nodetypes="cccccccccccccccccccccccccccc"
         inkscape:connector-curvature="0"
         id="path4203-9-5-0"
         d="m 682.03389,390.29129 c -0.28869,0.89371 -0.32374,1.93235 -3.83929,0.98214 -5.91895,-3.85037 -9.41564,-10.60698 -15.98214,-15.44643 l -18.48215,-1.875 c -3.17588,2.59314 -5.64309,3.06024 -8.39285,4.375 2.53193,-1.57738 5.70669,-3.15476 6.69643,-4.73214 l -19.73215,-2.32143 c 7.66295,-0.71386 12.74644,0.0462 18.92857,0.17857 -2.19556,-2.26361 -6.05167,-4.11208 -9.10714,-6.16071 4.2655,2.0472 8.65025,4.0149 12.23214,6.51785 l 15.80358,1.69643 -11.25,-12.76785 c -3.04606,0.9303 -5.3986,0.64128 -7.5,-0.0893 2.34775,-0.21092 5.20782,-0.0376 6.69642,-0.89286 -6.46672,-8.30662 -10.11109,-17.01644 -15.08928,-25.53571 5.65413,8.30451 10.83923,17.31258 16.96428,24.91071 l 2.85715,-7.5 c 0.30639,3.04247 -0.61305,5.73471 -1.96429,8.30357 l 10.53572,12.41072 c 1.3161,-5.56798 0.0101,-13.14719 0.44642,-19.375 -2.24964,-1.45265 -3.06471,-3.98123 -4.46428,-6.07143 l 4.64286,4.91071 c 0.3217,-3.71456 0.82296,-7.60868 2.32142,-12.5 l -1.16071,12.14286 c 1.27988,-0.26818 3.98751,-4.34368 5.98214,-6.51786 -1.84408,2.8583 -3.14676,6.258 -5.625,8.48215 l -0.26785,21.42857 c 5.69688,5.5913 12.11734,9.79259 18.75,15.44644 z"
         style="fill:#79c800;fill-opacity:1;fill-rule:evenodd;stroke:none;stroke-width:1px;stroke-linecap:butt;stroke-linejoin:miter;stroke-opacity:1" />
    </g>
    <g
       id="g4205-7-4-3"
       transform="matrix(-0.58995025,-1.0547396,1.107901,-0.56164224,356.77006,1424.3158)">
      <path
         sodipodi:nodetypes="cccccccccc"
         inkscape:connector-curvature="0"
         id="path4201-7-9-5"
         d="m 664.4446,376.54129 c 6.17281,1.14239 11.91587,-3.38264 11.42857,-13.03572 -9.21946,-0.53307 -2.77111,-20.96788 -10,-25.89285 -8.62907,3.93466 -6.0179,9.76197 -11.875,12.85714 -7.19215,-6.49815 -14.89469,-16.85438 -21.875,-17.05357 -0.32349,5.35598 -0.21383,19.82674 6.60714,26.33928 -2.06607,5.47887 -12.54734,3.84982 -17.5,11.78571 3.50689,6.89259 22.55488,6.11118 22.85715,16.60715 7.42206,-0.65208 16.87656,3.65499 18.75,-10.53571 z"
         style="fill:#06b000;fill-opacity:1;fill-rule:evenodd;stroke:#000000;stroke-width:1px;stroke-linecap:butt;stroke-linejoin:miter;stroke-opacity:1" />
      <path
         sodipodi:nodetypes="cccccccccccccccccccccccccccc"
         inkscape:connector-curvature="0"
         id="path4203-9-5-7"
         d="m 682.03389,390.29129 c -0.28869,0.89371 -0.32374,1.93235 -3.83929,0.98214 -5.91895,-3.85037 -9.41564,-10.60698 -15.98214,-15.44643 l -18.48215,-1.875 c -3.17588,2.59314 -5.64309,3.06024 -8.39285,4.375 2.53193,-1.57738 5.70669,-3.15476 6.69643,-4.73214 l -19.73215,-2.32143 c 7.66295,-0.71386 12.74644,0.0462 18.92857,0.17857 -2.19556,-2.26361 -6.05167,-4.11208 -9.10714,-6.16071 4.2655,2.0472 8.65025,4.0149 12.23214,6.51785 l 15.80358,1.69643 -11.25,-12.76785 c -3.04606,0.9303 -5.3986,0.64128 -7.5,-0.0893 2.34775,-0.21092 5.20782,-0.0376 6.69642,-0.89286 -6.46672,-8.30662 -10.11109,-17.01644 -15.08928,-25.53571 5.65413,8.30451 10.83923,17.31258 16.96428,24.91071 l 2.85715,-7.5 c 0.30639,3.04247 -0.61305,5.73471 -1.96429,8.30357 l 10.53572,12.41072 c 1.3161,-5.56798 0.0101,-13.14719 0.44642,-19.375 -2.24964,-1.45265 -3.06471,-3.98123 -4.46428,-6.07143 l 4.64286,4.91071 c 0.3217,-3.71456 0.82296,-7.60868 2.32142,-12.5 l -1.16071,12.14286 c 1.27988,-0.26818 3.98751,-4.34368 5.98214,-6.51786 -1.84408,2.8583 -3.14676,6.258 -5.625,8.48215 l -0.26785,21.42857 c 5.69688,5.5913 12.11734,9.79259 18.75,15.44644 z"
         style="fill:#79c800;fill-opacity:1;fill-rule:evenodd;stroke:none;stroke-width:1px;stroke-linecap:butt;stroke-linejoin:miter;stroke-opacity:1" />
    </g>
    <g
       id="g4205-7-4-6"
       transform="matrix(-1.1793909,-0.40894903,0.42956097,-1.1227992,907.61117,1227.6973)">
      <path
         sodipodi:nodetypes="cccccccccc"
         inkscape:connector-curvature="0"
         id="path4201-7-9-1"
         d="m 664.4446,376.54129 c 6.17281,1.14239 11.91587,-3.38264 11.42857,-13.03572 -9.21946,-0.53307 -2.77111,-20.96788 -10,-25.89285 -8.62907,3.93466 -6.0179,9.76197 -11.875,12.85714 -7.19215,-6.49815 -14.89469,-16.85438 -21.875,-17.05357 -0.32349,5.35598 -0.21383,19.82674 6.60714,26.33928 -2.06607,5.47887 -12.54734,3.84982 -17.5,11.78571 3.50689,6.89259 22.55488,6.11118 22.85715,16.60715 7.42206,-0.65208 16.87656,3.65499 18.75,-10.53571 z"
         style="fill:#06b000;fill-opacity:1;fill-rule:evenodd;stroke:#000000;stroke-width:1px;stroke-linecap:butt;stroke-linejoin:miter;stroke-opacity:1" />
      <path
         sodipodi:nodetypes="cccccccccccccccccccccccccccc"
         inkscape:connector-curvature="0"
         id="path4203-9-5-88"
         d="m 682.03389,390.29129 c -0.28869,0.89371 -0.32374,1.93235 -3.83929,0.98214 -5.91895,-3.85037 -9.41564,-10.60698 -15.98214,-15.44643 l -18.48215,-1.875 c -3.17588,2.59314 -5.64309,3.06024 -8.39285,4.375 2.53193,-1.57738 5.70669,-3.15476 6.69643,-4.73214 l -19.73215,-2.32143 c 7.66295,-0.71386 12.74644,0.0462 18.92857,0.17857 -2.19556,-2.26361 -6.05167,-4.11208 -9.10714,-6.16071 4.2655,2.0472 8.65025,4.0149 12.23214,6.51785 l 15.80358,1.69643 -11.25,-12.76785 c -3.04606,0.9303 -5.3986,0.64128 -7.5,-0.0893 2.34775,-0.21092 5.20782,-0.0376 6.69642,-0.89286 -6.46672,-8.30662 -10.11109,-17.01644 -15.08928,-25.53571 5.65413,8.30451 10.83923,17.31258 16.96428,24.91071 l 2.85715,-7.5 c 0.30639,3.04247 -0.61305,5.73471 -1.96429,8.30357 l 10.53572,12.41072 c 1.3161,-5.56798 0.0101,-13.14719 0.44642,-19.375 -2.24964,-1.45265 -3.06471,-3.98123 -4.46428,-6.07143 l 4.64286,4.91071 c 0.3217,-3.71456 0.82296,-7.60868 2.32142,-12.5 l -1.16071,12.14286 c 1.27988,-0.26818 3.98751,-4.34368 5.98214,-6.51786 -1.84408,2.8583 -3.14676,6.258 -5.625,8.48215 l -0.26785,21.42857 c 5.69688,5.5913 12.11734,9.79259 18.75,15.44644 z"
         style="fill:#79c800;fill-opacity:1;fill-rule:evenodd;stroke:none;stroke-width:1px;stroke-linecap:butt;stroke-linejoin:miter;stroke-opacity:1" />
    </g>
    <g
       id="g4205-7-4-2"
       transform="matrix(-1.1612767,0.45350587,-0.47636358,-1.1055543,1608.0867,493.64179)">
      <path
         sodipodi:nodetypes="cccccccccc"
         inkscape:connector-curvature="0"
         id="path4201-7-9-74"
         d="m 664.4446,376.54129 c 6.17281,1.14239 11.91587,-3.38264 11.42857,-13.03572 -9.21946,-0.53307 -2.77111,-20.96788 -10,-25.89285 -8.62907,3.93466 -6.0179,9.76197 -11.875,12.85714 -7.19215,-6.49815 -14.89469,-16.85438 -21.875,-17.05357 -0.32349,5.35598 -0.21383,19.82674 6.60714,26.33928 -2.06607,5.47887 -12.54734,3.84982 -17.5,11.78571 3.50689,6.89259 22.55488,6.11118 22.85715,16.60715 7.42206,-0.65208 16.87656,3.65499 18.75,-10.53571 z"
         style="fill:#06b000;fill-opacity:1;fill-rule:evenodd;stroke:#000000;stroke-width:1px;stroke-linecap:butt;stroke-linejoin:miter;stroke-opacity:1" />
      <path
         sodipodi:nodetypes="cccccccccccccccccccccccccccc"
         inkscape:connector-curvature="0"
         id="path4203-9-5-881"
         d="m 682.03389,390.29129 c -0.28869,0.89371 -0.32374,1.93235 -3.83929,0.98214 -5.91895,-3.85037 -9.41564,-10.60698 -15.98214,-15.44643 l -18.48215,-1.875 c -3.17588,2.59314 -5.64309,3.06024 -8.39285,4.375 2.53193,-1.57738 5.70669,-3.15476 6.69643,-4.73214 l -19.73215,-2.32143 c 7.66295,-0.71386 12.74644,0.0462 18.92857,0.17857 -2.19556,-2.26361 -6.05167,-4.11208 -9.10714,-6.16071 4.2655,2.0472 8.65025,4.0149 12.23214,6.51785 l 15.80358,1.69643 -11.25,-12.76785 c -3.04606,0.9303 -5.3986,0.64128 -7.5,-0.0893 2.34775,-0.21092 5.20782,-0.0376 6.69642,-0.89286 -6.46672,-8.30662 -10.11109,-17.01644 -15.08928,-25.53571 5.65413,8.30451 10.83923,17.31258 16.96428,24.91071 l 2.85715,-7.5 c 0.30639,3.04247 -0.61305,5.73471 -1.96429,8.30357 l 10.53572,12.41072 c 1.3161,-5.56798 0.0101,-13.14719 0.44642,-19.375 -2.24964,-1.45265 -3.06471,-3.98123 -4.46428,-6.07143 l 4.64286,4.91071 c 0.3217,-3.71456 0.82296,-7.60868 2.32142,-12.5 l -1.16071,12.14286 c 1.27988,-0.26818 3.98751,-4.34368 5.98214,-6.51786 -1.84408,2.8583 -3.14676,6.258 -5.625,8.48215 l -0.26785,21.42857 c 5.69688,5.5913 12.11734,9.79259 18.75,15.44644 z"
         style="fill:#79c800;fill-opacity:1;fill-rule:evenodd;stroke:none;stroke-width:1px;stroke-linecap:butt;stroke-linejoin:miter;stroke-opacity:1" />
    </g>
    <g
       id="g4205-7-4-0"
       transform="matrix(-0.5388496,1.0792383,-1.1336344,-0.51299356,1449.9815,-221.6213)">
      <path
         sodipodi:nodetypes="cccccccccc"
         inkscape:connector-curvature="0"
         id="path4201-7-9-6"
         d="m 664.4446,376.54129 c 6.17281,1.14239 11.91587,-3.38264 11.42857,-13.03572 -9.21946,-0.53307 -2.77111,-20.96788 -10,-25.89285 -8.62907,3.93466 -6.0179,9.76197 -11.875,12.85714 -7.19215,-6.49815 -14.89469,-16.85438 -21.875,-17.05357 -0.32349,5.35598 -0.21383,19.82674 6.60714,26.33928 -2.06607,5.47887 -12.54734,3.84982 -17.5,11.78571 3.50689,6.89259 22.55488,6.11118 22.85715,16.60715 7.42206,-0.65208 16.87656,3.65499 18.75,-10.53571 z"
         style="fill:#06b000;fill-opacity:1;fill-rule:evenodd;stroke:#000000;stroke-width:1px;stroke-linecap:butt;stroke-linejoin:miter;stroke-opacity:1" />
      <path
         sodipodi:nodetypes="cccccccccccccccccccccccccccc"
         inkscape:connector-curvature="0"
         id="path4203-9-5-8811"
         d="m 682.03389,390.29129 c -0.28869,0.89371 -0.32374,1.93235 -3.83929,0.98214 -5.91895,-3.85037 -9.41564,-10.60698 -15.98214,-15.44643 l -18.48215,-1.875 c -3.17588,2.59314 -5.64309,3.06024 -8.39285,4.375 2.53193,-1.57738 5.70669,-3.15476 6.69643,-4.73214 l -19.73215,-2.32143 c 7.66295,-0.71386 12.74644,0.0462 18.92857,0.17857 -2.19556,-2.26361 -6.05167,-4.11208 -9.10714,-6.16071 4.2655,2.0472 8.65025,4.0149 12.23214,6.51785 l 15.80358,1.69643 -11.25,-12.76785 c -3.04606,0.9303 -5.3986,0.64128 -7.5,-0.0893 2.34775,-0.21092 5.20782,-0.0376 6.69642,-0.89286 -6.46672,-8.30662 -10.11109,-17.01644 -15.08928,-25.53571 5.65413,8.30451 10.83923,17.31258 16.96428,24.91071 l 2.85715,-7.5 c 0.30639,3.04247 -0.61305,5.73471 -1.96429,8.30357 l 10.53572,12.41072 c 1.3161,-5.56798 0.0101,-13.14719 0.44642,-19.375 -2.24964,-1.45265 -3.06471,-3.98123 -4.46428,-6.07143 l 4.64286,4.91071 c 0.3217,-3.71456 0.82296,-7.60868 2.32142,-12.5 l -1.16071,12.14286 c 1.27988,-0.26818 3.98751,-4.34368 5.98214,-6.51786 -1.84408,2.8583 -3.14676,6.258 -5.625,8.48215 l -0.26785,21.42857 c 5.69688,5.5913 12.11734,9.79259 18.75,15.44644 z"
         style="fill:#79c800;fill-opacity:1;fill-rule:evenodd;stroke:none;stroke-width:1px;stroke-linecap:butt;stroke-linejoin:miter;stroke-opacity:1" />
    </g>
    <g
       id="g4205-7-4-30"
       transform="matrix(0.45610101,1.113272,-1.1693834,0.43421558,743.52162,-661.85906)">
      <path
         sodipodi:nodetypes="cccccccccc"
         inkscape:connector-curvature="0"
         id="path4201-7-9-4"
         d="m 664.4446,376.54129 c 6.17281,1.14239 11.91587,-3.38264 11.42857,-13.03572 -9.21946,-0.53307 -2.77111,-20.96788 -10,-25.89285 -8.62907,3.93466 -6.0179,9.76197 -11.875,12.85714 -7.19215,-6.49815 -14.89469,-16.85438 -21.875,-17.05357 -0.32349,5.35598 -0.21383,19.82674 6.60714,26.33928 -2.06607,5.47887 -12.54734,3.84982 -17.5,11.78571 3.50689,6.89259 22.55488,6.11118 22.85715,16.60715 7.42206,-0.65208 16.87656,3.65499 18.75,-10.53571 z"
         style="fill:#06b000;fill-opacity:1;fill-rule:evenodd;stroke:#000000;stroke-width:1px;stroke-linecap:butt;stroke-linejoin:miter;stroke-opacity:1" />
      <path
         sodipodi:nodetypes="cccccccccccccccccccccccccccc"
         inkscape:connector-curvature="0"
         id="path4203-9-5-2"
         d="m 682.03389,390.29129 c -0.28869,0.89371 -0.32374,1.93235 -3.83929,0.98214 -5.91895,-3.85037 -9.41564,-10.60698 -15.98214,-15.44643 l -18.48215,-1.875 c -3.17588,2.59314 -5.64309,3.06024 -8.39285,4.375 2.53193,-1.57738 5.70669,-3.15476 6.69643,-4.73214 l -19.73215,-2.32143 c 7.66295,-0.71386 12.74644,0.0462 18.92857,0.17857 -2.19556,-2.26361 -6.05167,-4.11208 -9.10714,-6.16071 4.2655,2.0472 8.65025,4.0149 12.23214,6.51785 l 15.80358,1.69643 -11.25,-12.76785 c -3.04606,0.9303 -5.3986,0.64128 -7.5,-0.0893 2.34775,-0.21092 5.20782,-0.0376 6.69642,-0.89286 -6.46672,-8.30662 -10.11109,-17.01644 -15.08928,-25.53571 5.65413,8.30451 10.83923,17.31258 16.96428,24.91071 l 2.85715,-7.5 c 0.30639,3.04247 -0.61305,5.73471 -1.96429,8.30357 l 10.53572,12.41072 c 1.3161,-5.56798 0.0101,-13.14719 0.44642,-19.375 -2.24964,-1.45265 -3.06471,-3.98123 -4.46428,-6.07143 l 4.64286,4.91071 c 0.3217,-3.71456 0.82296,-7.60868 2.32142,-12.5 l -1.16071,12.14286 c 1.27988,-0.26818 3.98751,-4.34368 5.98214,-6.51786 -1.84408,2.8583 -3.14676,6.258 -5.625,8.48215 l -0.26785,21.42857 c 5.69688,5.5913 12.11734,9.79259 18.75,15.44644 z"
         style="fill:#79c800;fill-opacity:1;fill-rule:evenodd;stroke:none;stroke-width:1px;stroke-linecap:butt;stroke-linejoin:miter;stroke-opacity:1" />
    </g>
    <g
       id="g4205-7-4-30-8"
       transform="matrix(0.57258264,1.063379,-1.1169757,0.54510798,561.36991,-710.54946)">
      <path
         sodipodi:nodetypes="cccccccccc"
         inkscape:connector-curvature="0"
         id="path4201-7-9-4-3"
         d="m 664.4446,376.54129 c 6.17281,1.14239 11.91587,-3.38264 11.42857,-13.03572 -9.21946,-0.53307 -2.77111,-20.96788 -10,-25.89285 -8.62907,3.93466 -6.0179,9.76197 -11.875,12.85714 -7.19215,-6.49815 -14.89469,-16.85438 -21.875,-17.05357 -0.32349,5.35598 -0.21383,19.82674 6.60714,26.33928 -2.06607,5.47887 -12.54734,3.84982 -17.5,11.78571 3.50689,6.89259 22.55488,6.11118 22.85715,16.60715 7.42206,-0.65208 16.87656,3.65499 18.75,-10.53571 z"
         style="fill:#06b000;fill-opacity:1;fill-rule:evenodd;stroke:#000000;stroke-width:1px;stroke-linecap:butt;stroke-linejoin:miter;stroke-opacity:1" />
      <path
         sodipodi:nodetypes="cccccccccccccccccccccccccccc"
         inkscape:connector-curvature="0"
         id="path4203-9-5-2-7"
         d="m 682.03389,390.29129 c -0.28869,0.89371 -0.32374,1.93235 -3.83929,0.98214 -5.91895,-3.85037 -9.41564,-10.60698 -15.98214,-15.44643 l -18.48215,-1.875 c -3.17588,2.59314 -5.64309,3.06024 -8.39285,4.375 2.53193,-1.57738 5.70669,-3.15476 6.69643,-4.73214 l -19.73215,-2.32143 c 7.66295,-0.71386 12.74644,0.0462 18.92857,0.17857 -2.19556,-2.26361 -6.05167,-4.11208 -9.10714,-6.16071 4.2655,2.0472 8.65025,4.0149 12.23214,6.51785 l 15.80358,1.69643 -11.25,-12.76785 c -3.04606,0.9303 -5.3986,0.64128 -7.5,-0.0893 2.34775,-0.21092 5.20782,-0.0376 6.69642,-0.89286 -6.46672,-8.30662 -10.11109,-17.01644 -15.08928,-25.53571 5.65413,8.30451 10.83923,17.31258 16.96428,24.91071 l 2.85715,-7.5 c 0.30639,3.04247 -0.61305,5.73471 -1.96429,8.30357 l 10.53572,12.41072 c 1.3161,-5.56798 0.0101,-13.14719 0.44642,-19.375 -2.24964,-1.45265 -3.06471,-3.98123 -4.46428,-6.07143 l 4.64286,4.91071 c 0.3217,-3.71456 0.82296,-7.60868 2.32142,-12.5 l -1.16071,12.14286 c 1.27988,-0.26818 3.98751,-4.34368 5.98214,-6.51786 -1.84408,2.8583 -3.14676,6.258 -5.625,8.48215 l -0.26785,21.42857 c 5.69688,5.5913 12.11734,9.79259 18.75,15.44644 z"
         style="fill:#79c800;fill-opacity:1;fill-rule:evenodd;stroke:none;stroke-width:1px;stroke-linecap:butt;stroke-linejoin:miter;stroke-opacity:1" />
    </g>
    <g
       id="g4205-7-4-30-1"
       transform="matrix(0.96887922,0.75968188,-0.79797156,0.92238877,100.34138,-666.2217)">
      <path
         sodipodi:nodetypes="cccccccccc"
         inkscape:connector-curvature="0"
         id="path4201-7-9-4-4"
         d="m 664.4446,376.54129 c 6.17281,1.14239 11.91587,-3.38264 11.42857,-13.03572 -9.21946,-0.53307 -2.77111,-20.96788 -10,-25.89285 -8.62907,3.93466 -6.0179,9.76197 -11.875,12.85714 -7.19215,-6.49815 -14.89469,-16.85438 -21.875,-17.05357 -0.32349,5.35598 -0.21383,19.82674 6.60714,26.33928 -2.06607,5.47887 -12.54734,3.84982 -17.5,11.78571 3.50689,6.89259 22.55488,6.11118 22.85715,16.60715 7.42206,-0.65208 16.87656,3.65499 18.75,-10.53571 z"
         style="fill:#06b000;fill-opacity:1;fill-rule:evenodd;stroke:#000000;stroke-width:1px;stroke-linecap:butt;stroke-linejoin:miter;stroke-opacity:1" />
      <path
         sodipodi:nodetypes="cccccccccccccccccccccccccccc"
         inkscape:connector-curvature="0"
         id="path4203-9-5-2-1"
         d="m 682.03389,390.29129 c -0.28869,0.89371 -0.32374,1.93235 -3.83929,0.98214 -5.91895,-3.85037 -9.41564,-10.60698 -15.98214,-15.44643 l -18.48215,-1.875 c -3.17588,2.59314 -5.64309,3.06024 -8.39285,4.375 2.53193,-1.57738 5.70669,-3.15476 6.69643,-4.73214 l -19.73215,-2.32143 c 7.66295,-0.71386 12.74644,0.0462 18.92857,0.17857 -2.19556,-2.26361 -6.05167,-4.11208 -9.10714,-6.16071 4.2655,2.0472 8.65025,4.0149 12.23214,6.51785 l 15.80358,1.69643 -11.25,-12.76785 c -3.04606,0.9303 -5.3986,0.64128 -7.5,-0.0893 2.34775,-0.21092 5.20782,-0.0376 6.69642,-0.89286 -6.46672,-8.30662 -10.11109,-17.01644 -15.08928,-25.53571 5.65413,8.30451 10.83923,17.31258 16.96428,24.91071 l 2.85715,-7.5 c 0.30639,3.04247 -0.61305,5.73471 -1.96429,8.30357 l 10.53572,12.41072 c 1.3161,-5.56798 0.0101,-13.14719 0.44642,-19.375 -2.24964,-1.45265 -3.06471,-3.98123 -4.46428,-6.07143 l 4.64286,4.91071 c 0.3217,-3.71456 0.82296,-7.60868 2.32142,-12.5 l -1.16071,12.14286 c 1.27988,-0.26818 3.98751,-4.34368 5.98214,-6.51786 -1.84408,2.8583 -3.14676,6.258 -5.625,8.48215 l -0.26785,21.42857 c 5.69688,5.5913 12.11734,9.79259 18.75,15.44644 z"
         style="fill:#79c800;fill-opacity:1;fill-rule:evenodd;stroke:none;stroke-width:1px;stroke-linecap:butt;stroke-linejoin:miter;stroke-opacity:1" />
    </g>
    <g
       id="g4205-7-4-30-5"
       transform="matrix(1.2522568,0.0815551,-0.08566566,1.1921688,-419.83759,-301.41593)">
      <path
         sodipodi:nodetypes="cccccccccc"
         inkscape:connector-curvature="0"
         id="path4201-7-9-4-7"
         d="m 664.4446,376.54129 c 6.17281,1.14239 11.91587,-3.38264 11.42857,-13.03572 -9.21946,-0.53307 -2.77111,-20.96788 -10,-25.89285 -8.62907,3.93466 -6.0179,9.76197 -11.875,12.85714 -7.19215,-6.49815 -14.89469,-16.85438 -21.875,-17.05357 -0.32349,5.35598 -0.21383,19.82674 6.60714,26.33928 -2.06607,5.47887 -12.54734,3.84982 -17.5,11.78571 3.50689,6.89259 22.55488,6.11118 22.85715,16.60715 7.42206,-0.65208 16.87656,3.65499 18.75,-10.53571 z"
         style="fill:#06b000;fill-opacity:1;fill-rule:evenodd;stroke:#000000;stroke-width:1px;stroke-linecap:butt;stroke-linejoin:miter;stroke-opacity:1" />
      <path
         sodipodi:nodetypes="cccccccccccccccccccccccccccc"
         inkscape:connector-curvature="0"
         id="path4203-9-5-2-4"
         d="m 682.03389,390.29129 c -0.28869,0.89371 -0.32374,1.93235 -3.83929,0.98214 -5.91895,-3.85037 -9.41564,-10.60698 -15.98214,-15.44643 l -18.48215,-1.875 c -3.17588,2.59314 -5.64309,3.06024 -8.39285,4.375 2.53193,-1.57738 5.70669,-3.15476 6.69643,-4.73214 l -19.73215,-2.32143 c 7.66295,-0.71386 12.74644,0.0462 18.92857,0.17857 -2.19556,-2.26361 -6.05167,-4.11208 -9.10714,-6.16071 4.2655,2.0472 8.65025,4.0149 12.23214,6.51785 l 15.80358,1.69643 -11.25,-12.76785 c -3.04606,0.9303 -5.3986,0.64128 -7.5,-0.0893 2.34775,-0.21092 5.20782,-0.0376 6.69642,-0.89286 -6.46672,-8.30662 -10.11109,-17.01644 -15.08928,-25.53571 5.65413,8.30451 10.83923,17.31258 16.96428,24.91071 l 2.85715,-7.5 c 0.30639,3.04247 -0.61305,5.73471 -1.96429,8.30357 l 10.53572,12.41072 c 1.3161,-5.56798 0.0101,-13.14719 0.44642,-19.375 -2.24964,-1.45265 -3.06471,-3.98123 -4.46428,-6.07143 l 4.64286,4.91071 c 0.3217,-3.71456 0.82296,-7.60868 2.32142,-12.5 l -1.16071,12.14286 c 1.27988,-0.26818 3.98751,-4.34368 5.98214,-6.51786 -1.84408,2.8583 -3.14676,6.258 -5.625,8.48215 l -0.26785,21.42857 c 5.69688,5.5913 12.11734,9.79259 18.75,15.44644 z"
         style="fill:#79c800;fill-opacity:1;fill-rule:evenodd;stroke:none;stroke-width:1px;stroke-linecap:butt;stroke-linejoin:miter;stroke-opacity:1" />
    </g>
  </g>
</svg>
