<?xml version="1.0" encoding="UTF-8" standalone="no"?>
<!-- Created with Inkscape (http://www.inkscape.org/) -->

<svg
   xmlns:dc="http://purl.org/dc/elements/1.1/"
   xmlns:cc="http://creativecommons.org/ns#"
   xmlns:rdf="http://www.w3.org/1999/02/22-rdf-syntax-ns#"
   xmlns:svg="http://www.w3.org/2000/svg"
   xmlns="http://www.w3.org/2000/svg"
   xmlns:sodipodi="http://sodipodi.sourceforge.net/DTD/sodipodi-0.dtd"
   xmlns:inkscape="http://www.inkscape.org/namespaces/inkscape"
   width="500"
   height="500"
   viewBox="0 0 499.99999 499.99999"
   id="svg2"
   version="1.1"
   inkscape:version="0.91 r13725"
   sodipodi:docname="ivy-logo.svg"
   inkscape:export-filename="/media/Tokyo/Creating/hacking/Ivy Image Viewer/img/ivy-logo-512px.png"
   inkscape:export-xdpi="92.160004"
   inkscape:export-ydpi="92.160004">
  <title
     id="title4506">Ivy Image Viewer</title>
  <defs
     id="defs4" />
  <sodipodi:namedview
     id="base"
     pagecolor="#ffffff"
     bordercolor="#666666"
     borderopacity="1.0"
     inkscape:pageopacity="0"
     inkscape:pageshadow="2"
     inkscape:zoom="0.98994949"
     inkscape:cx="-34.6329"
     inkscape:cy="217.61998"
     inkscape:document-units="px"
     inkscape:current-layer="layer1"
     showgrid="false"
     inkscape:window-width="1920"
     inkscape:window-height="1016"
     inkscape:window-x="0"
     inkscape:window-y="27"
     inkscape:window-maximized="1"
     borderlayer="true"
     fit-margin-top="0"
     fit-margin-left="0"
     fit-margin-right="0"
     fit-margin-bottom="0"
     units="px" />
  <metadata
     id="metadata7">
    <rdf:RDF>
      <cc:Work
         rdf:about="">
        <dc:format>image/svg+xml</dc:format>
        <dc:type
           rdf:resource="http://purl.org/dc/dcmitype/StillImage" />
        <dc:title>Ivy Image Viewer</dc:title>
        <dc:date>2015-10-21</dc:date>
        <dc:creator>
          <cc:Agent>
            <dc:title>Andrew Toskin</dc:title>
          </cc:Agent>
        </dc:creator>
        <dc:rights>
          <cc:Agent>
            <dc:title />
          </cc:Agent>
        </dc:rights>
        <dc:subject>
          <rdf:Bag>
            <rdf:li>ivy</rdf:li>
            <rdf:li>image viewer</rdf:li>
            <rdf:li>logo</rdf:li>
            <rdf:li>software application</rdf:li>
          </rdf:Bag>
        </dc:subject>
        <cc:license
           rdf:resource="https://gnu.org/licenses/gpl.html" />
      </cc:Work>
    </rdf:RDF>
  </metadata>
  <g
     inkscape:label="Layer 1"
     inkscape:groupmode="layer"
     id="layer1"
     transform="translate(-232.24019,-120.70647)">
    <path
       style="opacity:1;fill:#f9df00;fill-opacity:1;stroke:none;stroke-width:1;stroke-linecap:round;stroke-linejoin:miter;stroke-miterlimit:4;stroke-dasharray:none;stroke-opacity:1"
       d="m 254.11035,283.33419 c -14.98793,-35.73736 150.37505,30.12974 176.17703,-36.59335 25.21048,66.92505 191.69661,0.42799 176.17723,36.59335 -3.29853,7.68672 15.5067,6.70438 15.5067,15.03224 0,26.77077 -16.52673,59.20054 0,80.31229 11.66095,14.896 9.82256,19.70119 0,32.09856 -15.23974,19.23452 0,64.00143 0,96.00213 0,8.32785 -18.9345,7.3989 -15.5067,15.03223 15.91612,35.44329 -148.66538,-31.14014 -176.17723,35.71111 -25.90995,-67.06799 -190.75611,-0.70656 -176.17703,-35.71111 3.21518,-7.7197 -15.50668,-6.70438 -15.50668,-15.03223 -2e-5,-32.0007 20.04409,-58.875 -5e-5,-96.00213 -6.63036,-12.28118 -10.15743,-17.53886 -2e-5,-32.09856 12.70977,-18.21831 0.0224,-53.52525 -3e-5,-80.31229 -0.008,-8.32786 18.74124,-7.31997 15.50678,-15.03224 z"
       id="rect4508"
       inkscape:connector-curvature="0"
       sodipodi:nodetypes="scsssssscssssss" />
    <rect
       style="opacity:1;fill:#00f9f9;fill-opacity:1;stroke:#000000;stroke-width:4;stroke-linecap:round;stroke-linejoin:miter;stroke-miterlimit:4;stroke-dasharray:none;stroke-opacity:1"
       id="rect4529"
       width="309.80786"
       height="176.73964"
       x="275.45581"
       y="314.20312"
       ry="0" />
    <path
       style="fill:#3ac319;fill-opacity:1;fill-rule:evenodd;stroke:none;stroke-width:1px;stroke-linecap:butt;stroke-linejoin:miter;stroke-opacity:1"
       d="M 261.35402,532.15938 C 255.14874,325.50257 604.6364,633.70816 573.39603,480.6531 517.99553,365.98459 707.5817,278.47116 602.35629,266.16096 595.10555,262.48627 559.52356,262.09189 551.68787,251.78222 527.44494,232.43711 343.46611,188.45449 354.3,278.19205 c -4.48941,-0.0652 -8.95307,-0.16963 -13.2686,-0.50024 -31.47886,-78.63496 139.24008,-85.41207 211.81575,-47.1628 5.28717,14.58236 49.46148,20.25525 59.42959,26.16493 115.19746,11.82042 -78.99303,118.69884 -14.86644,229.67825 24.88301,178.17344 -319.622,-123.05169 -322.57985,45.4884 -3.92952,4.43633 -10.8722,6.31696 -13.47643,0.29879 z"
       id="path4536"
       inkscape:connector-curvature="0"
       sodipodi:nodetypes="ccccccccccc" />
    <g
       id="g4205-7-4"
       transform="matrix(-0.5309017,1.0823306,-1.1169136,-0.51446338,1385.3218,-59.624913)">
      <path
         sodipodi:nodetypes="cccccccccc"
         inkscape:connector-curvature="0"
         id="path4201-7-9"
         d="m 664.4446,376.54129 c 6.17281,1.14239 11.91587,-3.38264 11.42857,-13.03572 -9.21946,-0.53307 -2.77111,-20.96788 -10,-25.89285 -8.62907,3.93466 -6.0179,9.76197 -11.875,12.85714 -7.19215,-6.49815 -14.89469,-16.85438 -21.875,-17.05357 -0.32349,5.35598 -0.21383,19.82674 6.60714,26.33928 -2.06607,5.47887 -12.54734,3.84982 -17.5,11.78571 3.50689,6.89259 22.55488,6.11118 22.85715,16.60715 7.42206,-0.65208 16.87656,3.65499 18.75,-10.53571 z"
         style="fill:#06b000;fill-opacity:1;fill-rule:evenodd;stroke:#000000;stroke-width:1px;stroke-linecap:butt;stroke-linejoin:miter;stroke-opacity:1" />
      <path
         sodipodi:nodetypes="cccccccccccccccccccccccccccc"
         inkscape:connector-curvature="0"
         id="path4203-9-5"
         d="m 682.03389,390.29129 c -0.28869,0.89371 -0.32374,1.93235 -3.83929,0.98214 -5.91895,-3.85037 -9.41564,-10.60698 -15.98214,-15.44643 l -18.48215,-1.875 c -3.17588,2.59314 -5.64309,3.06024 -8.39285,4.375 2.53193,-1.57738 5.70669,-3.15476 6.69643,-4.73214 l -19.73215,-2.32143 c 7.66295,-0.71386 12.74644,0.0462 18.92857,0.17857 -2.19556,-2.26361 -6.05167,-4.11208 -9.10714,-6.16071 4.2655,2.0472 8.65025,4.0149 12.23214,6.51785 l 15.80358,1.69643 -11.25,-12.76785 c -3.04606,0.9303 -5.3986,0.64128 -7.5,-0.0893 2.34775,-0.21092 5.20782,-0.0376 6.69642,-0.89286 -6.46672,-8.30662 -10.11109,-17.01644 -15.08928,-25.53571 5.65413,8.30451 10.83923,17.31258 16.96428,24.91071 l 2.85715,-7.5 c 0.30639,3.04247 -0.61305,5.73471 -1.96429,8.30357 l 10.53572,12.41072 c 1.3161,-5.56798 0.0101,-13.14719 0.44642,-19.375 -2.24964,-1.45265 -3.06471,-3.98123 -4.46428,-6.07143 l 4.64286,4.91071 c 0.3217,-3.71456 0.82296,-7.60868 2.32142,-12.5 l -1.16071,12.14286 c 1.27988,-0.26818 3.98751,-4.34368 5.98214,-6.51786 -1.84408,2.8583 -3.14676,6.258 -5.625,8.48215 l -0.26785,21.42857 c 5.69688,5.5913 12.11734,9.79259 18.75,15.44644 z"
         style="fill:#79c800;fill-opacity:1;fill-rule:evenodd;stroke:none;stroke-width:1px;stroke-linecap:butt;stroke-linejoin:miter;stroke-opacity:1" />
    </g>
    <g
       id="g4205-7-4-9"
       transform="matrix(-1.2356473,0.04872593,-0.05028282,-1.1973878,1441.1751,966.94947)"
       inkscape:transform-center-x="-3.3925245"
       inkscape:transform-center-y="-31.773922">
      <path
         sodipodi:nodetypes="cccccccccc"
         inkscape:connector-curvature="0"
         id="path4201-7-9-7"
         d="m 664.4446,376.54129 c 6.17281,1.14239 11.91587,-3.38264 11.42857,-13.03572 -9.21946,-0.53307 -2.77111,-20.96788 -10,-25.89285 -8.62907,3.93466 -6.0179,9.76197 -11.875,12.85714 -7.19215,-6.49815 -14.89469,-16.85438 -21.875,-17.05357 -0.32349,5.35598 -0.21383,19.82674 6.60714,26.33928 -2.06607,5.47887 -12.54734,3.84982 -17.5,11.78571 3.50689,6.89259 22.55488,6.11118 22.85715,16.60715 7.42206,-0.65208 16.87656,3.65499 18.75,-10.53571 z"
         style="fill:#06b000;fill-opacity:1;fill-rule:evenodd;stroke:#000000;stroke-width:1px;stroke-linecap:butt;stroke-linejoin:miter;stroke-opacity:1" />
      <path
         sodipodi:nodetypes="cccccccccccccccccccccccccccc"
         inkscape:connector-curvature="0"
         id="path4203-9-5-8"
         d="m 682.03389,390.29129 c -0.28869,0.89371 -0.32374,1.93235 -3.83929,0.98214 -5.91895,-3.85037 -9.41564,-10.60698 -15.98214,-15.44643 l -18.48215,-1.875 c -3.17588,2.59314 -5.64309,3.06024 -8.39285,4.375 2.53193,-1.57738 5.70669,-3.15476 6.69643,-4.73214 l -19.73215,-2.32143 c 7.66295,-0.71386 12.74644,0.0462 18.92857,0.17857 -2.19556,-2.26361 -6.05167,-4.11208 -9.10714,-6.16071 4.2655,2.0472 8.65025,4.0149 12.23214,6.51785 l 15.80358,1.69643 -11.25,-12.76785 c -3.04606,0.9303 -5.3986,0.64128 -7.5,-0.0893 2.34775,-0.21092 5.20782,-0.0376 6.69642,-0.89286 -6.46672,-8.30662 -10.11109,-17.01644 -15.08928,-25.53571 5.65413,8.30451 10.83923,17.31258 16.96428,24.91071 l 2.85715,-7.5 c 0.30639,3.04247 -0.61305,5.73471 -1.96429,8.30357 l 10.53572,12.41072 c 1.3161,-5.56798 0.0101,-13.14719 0.44642,-19.375 -2.24964,-1.45265 -3.06471,-3.98123 -4.46428,-6.07143 l 4.64286,4.91071 c 0.3217,-3.71456 0.82296,-7.60868 2.32142,-12.5 l -1.16071,12.14286 c 1.27988,-0.26818 3.98751,-4.34368 5.98214,-6.51786 -1.84408,2.8583 -3.14676,6.258 -5.625,8.48215 l -0.26785,21.42857 c 5.69688,5.5913 12.11734,9.79259 18.75,15.44644 z"
         style="fill:#79c800;fill-opacity:1;fill-rule:evenodd;stroke:none;stroke-width:1px;stroke-linecap:butt;stroke-linejoin:miter;stroke-opacity:1" />
    </g>
    <g
       id="g4205-7-4-5"
       transform="matrix(-0.5589212,-1.0690017,1.1031588,-0.54161535,492.34896,1476.2501)">
      <path
         sodipodi:nodetypes="cccccccccc"
         inkscape:connector-curvature="0"
         id="path4201-7-9-3"
         d="m 664.4446,376.54129 c 6.17281,1.14239 11.91587,-3.38264 11.42857,-13.03572 -9.21946,-0.53307 -2.77111,-20.96788 -10,-25.89285 -8.62907,3.93466 -6.0179,9.76197 -11.875,12.85714 -7.19215,-6.49815 -14.89469,-16.85438 -21.875,-17.05357 -0.32349,5.35598 -0.21383,19.82674 6.60714,26.33928 -2.06607,5.47887 -12.54734,3.84982 -17.5,11.78571 3.50689,6.89259 22.55488,6.11118 22.85715,16.60715 7.42206,-0.65208 16.87656,3.65499 18.75,-10.53571 z"
         style="fill:#06b000;fill-opacity:1;fill-rule:evenodd;stroke:#000000;stroke-width:1px;stroke-linecap:butt;stroke-linejoin:miter;stroke-opacity:1" />
      <path
         sodipodi:nodetypes="cccccccccccccccccccccccccccc"
         inkscape:connector-curvature="0"
         id="path4203-9-5-1"
         d="m 682.03389,390.29129 c -0.28869,0.89371 -0.32374,1.93235 -3.83929,0.98214 -5.91895,-3.85037 -9.41564,-10.60698 -15.98214,-15.44643 l -18.48215,-1.875 c -3.17588,2.59314 -5.64309,3.06024 -8.39285,4.375 2.53193,-1.57738 5.70669,-3.15476 6.69643,-4.73214 l -19.73215,-2.32143 c 7.66295,-0.71386 12.74644,0.0462 18.92857,0.17857 -2.19556,-2.26361 -6.05167,-4.11208 -9.10714,-6.16071 4.2655,2.0472 8.65025,4.0149 12.23214,6.51785 l 15.80358,1.69643 -11.25,-12.76785 c -3.04606,0.9303 -5.3986,0.64128 -7.5,-0.0893 2.34775,-0.21092 5.20782,-0.0376 6.69642,-0.89286 -6.46672,-8.30662 -10.11109,-17.01644 -15.08928,-25.53571 5.65413,8.30451 10.83923,17.31258 16.96428,24.91071 l 2.85715,-7.5 c 0.30639,3.04247 -0.61305,5.73471 -1.96429,8.30357 l 10.53572,12.41072 c 1.3161,-5.56798 0.0101,-13.14719 0.44642,-19.375 -2.24964,-1.45265 -3.06471,-3.98123 -4.46428,-6.07143 l 4.64286,4.91071 c 0.3217,-3.71456 0.82296,-7.60868 2.32142,-12.5 l -1.16071,12.14286 c 1.27988,-0.26818 3.98751,-4.34368 5.98214,-6.51786 -1.84408,2.8583 -3.14676,6.258 -5.625,8.48215 l -0.26785,21.42857 c 5.69688,5.5913 12.11734,9.79259 18.75,15.44644 z"
         style="fill:#79c800;fill-opacity:1;fill-rule:evenodd;stroke:none;stroke-width:1px;stroke-linecap:butt;stroke-linejoin:miter;stroke-opacity:1" />
    </g>
    <g
       id="g4205-7-4-1"
       transform="matrix(-0.48449399,-1.0950657,1.1351713,-0.493116,353.50755,1451.8764)"
       inkscape:transform-center-x="17.68569"
       inkscape:transform-center-y="36.506838">
      <path
         sodipodi:nodetypes="cccccccccc"
         inkscape:connector-curvature="0"
         id="path4201-7-9-2"
         d="m 664.4446,376.54129 c 6.17281,1.14239 11.91587,-3.38264 11.42857,-13.03572 -9.21946,-0.53307 -2.77111,-20.96788 -10,-25.89285 -8.62907,3.93466 -6.0179,9.76197 -11.875,12.85714 -7.19215,-6.49815 -14.89469,-16.85438 -21.875,-17.05357 -0.32349,5.35598 -0.21383,19.82674 6.60714,26.33928 -2.06607,5.47887 -12.54734,3.84982 -17.5,11.78571 3.50689,6.89259 22.55488,6.11118 22.85715,16.60715 7.42206,-0.65208 16.87656,3.65499 18.75,-10.53571 z"
         style="fill:#06b000;fill-opacity:1;fill-rule:evenodd;stroke:#000000;stroke-width:1px;stroke-linecap:butt;stroke-linejoin:miter;stroke-opacity:1" />
      <path
         sodipodi:nodetypes="cccccccccccccccccccccccccccc"
         inkscape:connector-curvature="0"
         id="path4203-9-5-0"
         d="m 682.03389,390.29129 c -0.28869,0.89371 -0.32374,1.93235 -3.83929,0.98214 -5.91895,-3.85037 -9.41564,-10.60698 -15.98214,-15.44643 l -18.48215,-1.875 c -3.17588,2.59314 -5.64309,3.06024 -8.39285,4.375 2.53193,-1.57738 5.70669,-3.15476 6.69643,-4.73214 l -19.73215,-2.32143 c 7.66295,-0.71386 12.74644,0.0462 18.92857,0.17857 -2.19556,-2.26361 -6.05167,-4.11208 -9.10714,-6.16071 4.2655,2.0472 8.65025,4.0149 12.23214,6.51785 l 15.80358,1.69643 -11.25,-12.76785 c -3.04606,0.9303 -5.3986,0.64128 -7.5,-0.0893 2.34775,-0.21092 5.20782,-0.0376 6.69642,-0.89286 -6.46672,-8.30662 -10.11109,-17.01644 -15.08928,-25.53571 5.65413,8.30451 10.83923,17.31258 16.96428,24.91071 l 2.85715,-7.5 c 0.30639,3.04247 -0.61305,5.73471 -1.96429,8.30357 l 10.53572,12.41072 c 1.3161,-5.56798 0.0101,-13.14719 0.44642,-19.375 -2.24964,-1.45265 -3.06471,-3.98123 -4.46428,-6.07143 l 4.64286,4.91071 c 0.3217,-3.71456 0.82296,-7.60868 2.32142,-12.5 l -1.16071,12.14286 c 1.27988,-0.26818 3.98751,-4.34368 5.98214,-6.51786 -1.84408,2.8583 -3.14676,6.258 -5.625,8.48215 l -0.26785,21.42857 c 5.69688,5.5913 12.11734,9.79259 18.75,15.44644 z"
         style="fill:#79c800;fill-opacity:1;fill-rule:evenodd;stroke:none;stroke-width:1px;stroke-linecap:butt;stroke-linejoin:miter;stroke-opacity:1" />
    </g>
    <g
       id="g4205-7-4-3"
       transform="matrix(-0.58124863,-1.0577617,1.0915596,-0.56325147,354.5814,1425.5507)">
      <path
         sodipodi:nodetypes="cccccccccc"
         inkscape:connector-curvature="0"
         id="path4201-7-9-5"
         d="m 664.4446,376.54129 c 6.17281,1.14239 11.91587,-3.38264 11.42857,-13.03572 -9.21946,-0.53307 -2.77111,-20.96788 -10,-25.89285 -8.62907,3.93466 -6.0179,9.76197 -11.875,12.85714 -7.19215,-6.49815 -14.89469,-16.85438 -21.875,-17.05357 -0.32349,5.35598 -0.21383,19.82674 6.60714,26.33928 -2.06607,5.47887 -12.54734,3.84982 -17.5,11.78571 3.50689,6.89259 22.55488,6.11118 22.85715,16.60715 7.42206,-0.65208 16.87656,3.65499 18.75,-10.53571 z"
         style="fill:#06b000;fill-opacity:1;fill-rule:evenodd;stroke:#000000;stroke-width:1px;stroke-linecap:butt;stroke-linejoin:miter;stroke-opacity:1" />
      <path
         sodipodi:nodetypes="cccccccccccccccccccccccccccc"
         inkscape:connector-curvature="0"
         id="path4203-9-5-7"
         d="m 682.03389,390.29129 c -0.28869,0.89371 -0.32374,1.93235 -3.83929,0.98214 -5.91895,-3.85037 -9.41564,-10.60698 -15.98214,-15.44643 l -18.48215,-1.875 c -3.17588,2.59314 -5.64309,3.06024 -8.39285,4.375 2.53193,-1.57738 5.70669,-3.15476 6.69643,-4.73214 l -19.73215,-2.32143 c 7.66295,-0.71386 12.74644,0.0462 18.92857,0.17857 -2.19556,-2.26361 -6.05167,-4.11208 -9.10714,-6.16071 4.2655,2.0472 8.65025,4.0149 12.23214,6.51785 l 15.80358,1.69643 -11.25,-12.76785 c -3.04606,0.9303 -5.3986,0.64128 -7.5,-0.0893 2.34775,-0.21092 5.20782,-0.0376 6.69642,-0.89286 -6.46672,-8.30662 -10.11109,-17.01644 -15.08928,-25.53571 5.65413,8.30451 10.83923,17.31258 16.96428,24.91071 l 2.85715,-7.5 c 0.30639,3.04247 -0.61305,5.73471 -1.96429,8.30357 l 10.53572,12.41072 c 1.3161,-5.56798 0.0101,-13.14719 0.44642,-19.375 -2.24964,-1.45265 -3.06471,-3.98123 -4.46428,-6.07143 l 4.64286,4.91071 c 0.3217,-3.71456 0.82296,-7.60868 2.32142,-12.5 l -1.16071,12.14286 c 1.27988,-0.26818 3.98751,-4.34368 5.98214,-6.51786 -1.84408,2.8583 -3.14676,6.258 -5.625,8.48215 l -0.26785,21.42857 c 5.69688,5.5913 12.11734,9.79259 18.75,15.44644 z"
         style="fill:#79c800;fill-opacity:1;fill-rule:evenodd;stroke:none;stroke-width:1px;stroke-linecap:butt;stroke-linejoin:miter;stroke-opacity:1" />
    </g>
    <g
       id="g4205-7-4-6"
       transform="matrix(-1.1619952,-0.41012075,0.42322505,-1.1260163,896.94585,1229.0853)">
      <path
         sodipodi:nodetypes="cccccccccc"
         inkscape:connector-curvature="0"
         id="path4201-7-9-1"
         d="m 664.4446,376.54129 c 6.17281,1.14239 11.91587,-3.38264 11.42857,-13.03572 -9.21946,-0.53307 -2.77111,-20.96788 -10,-25.89285 -8.62907,3.93466 -6.0179,9.76197 -11.875,12.85714 -7.19215,-6.49815 -14.89469,-16.85438 -21.875,-17.05357 -0.32349,5.35598 -0.21383,19.82674 6.60714,26.33928 -2.06607,5.47887 -12.54734,3.84982 -17.5,11.78571 3.50689,6.89259 22.55488,6.11118 22.85715,16.60715 7.42206,-0.65208 16.87656,3.65499 18.75,-10.53571 z"
         style="fill:#06b000;fill-opacity:1;fill-rule:evenodd;stroke:#000000;stroke-width:1px;stroke-linecap:butt;stroke-linejoin:miter;stroke-opacity:1" />
      <path
         sodipodi:nodetypes="cccccccccccccccccccccccccccc"
         inkscape:connector-curvature="0"
         id="path4203-9-5-88"
         d="m 682.03389,390.29129 c -0.28869,0.89371 -0.32374,1.93235 -3.83929,0.98214 -5.91895,-3.85037 -9.41564,-10.60698 -15.98214,-15.44643 l -18.48215,-1.875 c -3.17588,2.59314 -5.64309,3.06024 -8.39285,4.375 2.53193,-1.57738 5.70669,-3.15476 6.69643,-4.73214 l -19.73215,-2.32143 c 7.66295,-0.71386 12.74644,0.0462 18.92857,0.17857 -2.19556,-2.26361 -6.05167,-4.11208 -9.10714,-6.16071 4.2655,2.0472 8.65025,4.0149 12.23214,6.51785 l 15.80358,1.69643 -11.25,-12.76785 c -3.04606,0.9303 -5.3986,0.64128 -7.5,-0.0893 2.34775,-0.21092 5.20782,-0.0376 6.69642,-0.89286 -6.46672,-8.30662 -10.11109,-17.01644 -15.08928,-25.53571 5.65413,8.30451 10.83923,17.31258 16.96428,24.91071 l 2.85715,-7.5 c 0.30639,3.04247 -0.61305,5.73471 -1.96429,8.30357 l 10.53572,12.41072 c 1.3161,-5.56798 0.0101,-13.14719 0.44642,-19.375 -2.24964,-1.45265 -3.06471,-3.98123 -4.46428,-6.07143 l 4.64286,4.91071 c 0.3217,-3.71456 0.82296,-7.60868 2.32142,-12.5 l -1.16071,12.14286 c 1.27988,-0.26818 3.98751,-4.34368 5.98214,-6.51786 -1.84408,2.8583 -3.14676,6.258 -5.625,8.48215 l -0.26785,21.42857 c 5.69688,5.5913 12.11734,9.79259 18.75,15.44644 z"
         style="fill:#79c800;fill-opacity:1;fill-rule:evenodd;stroke:none;stroke-width:1px;stroke-linecap:butt;stroke-linejoin:miter;stroke-opacity:1" />
    </g>
    <g
       id="g4205-7-4-2"
       transform="matrix(-1.0260329,0.68733321,-0.68585588,-0.98494667,1572.5803,274.0811)"
       inkscape:transform-center-x="-36.600469"
       inkscape:transform-center-y="9.6402753">
      <path
         sodipodi:nodetypes="cccccccccc"
         inkscape:connector-curvature="0"
         id="path4201-7-9-74"
         d="m 664.4446,376.54129 c 6.17281,1.14239 11.91587,-3.38264 11.42857,-13.03572 -9.21946,-0.53307 -2.77111,-20.96788 -10,-25.89285 -8.62907,3.93466 -6.0179,9.76197 -11.875,12.85714 -7.19215,-6.49815 -14.89469,-16.85438 -21.875,-17.05357 -0.32349,5.35598 -0.21383,19.82674 6.60714,26.33928 -2.06607,5.47887 -12.54734,3.84982 -17.5,11.78571 3.50689,6.89259 22.55488,6.11118 22.85715,16.60715 7.42206,-0.65208 16.87656,3.65499 18.75,-10.53571 z"
         style="fill:#06b000;fill-opacity:1;fill-rule:evenodd;stroke:#000000;stroke-width:1px;stroke-linecap:butt;stroke-linejoin:miter;stroke-opacity:1" />
      <path
         sodipodi:nodetypes="cccccccccccccccccccccccccccc"
         inkscape:connector-curvature="0"
         id="path4203-9-5-881"
         d="m 682.03389,390.29129 c -0.28869,0.89371 -0.32374,1.93235 -3.83929,0.98214 -5.91895,-3.85037 -9.41564,-10.60698 -15.98214,-15.44643 l -18.48215,-1.875 c -3.17588,2.59314 -5.64309,3.06024 -8.39285,4.375 2.53193,-1.57738 5.70669,-3.15476 6.69643,-4.73214 l -19.73215,-2.32143 c 7.66295,-0.71386 12.74644,0.0462 18.92857,0.17857 -2.19556,-2.26361 -6.05167,-4.11208 -9.10714,-6.16071 4.2655,2.0472 8.65025,4.0149 12.23214,6.51785 l 15.80358,1.69643 -11.25,-12.76785 c -3.04606,0.9303 -5.3986,0.64128 -7.5,-0.0893 2.34775,-0.21092 5.20782,-0.0376 6.69642,-0.89286 -6.46672,-8.30662 -10.11109,-17.01644 -15.08928,-25.53571 5.65413,8.30451 10.83923,17.31258 16.96428,24.91071 l 2.85715,-7.5 c 0.30639,3.04247 -0.61305,5.73471 -1.96429,8.30357 l 10.53572,12.41072 c 1.3161,-5.56798 0.0101,-13.14719 0.44642,-19.375 -2.24964,-1.45265 -3.06471,-3.98123 -4.46428,-6.07143 l 4.64286,4.91071 c 0.3217,-3.71456 0.82296,-7.60868 2.32142,-12.5 l -1.16071,12.14286 c 1.27988,-0.26818 3.98751,-4.34368 5.98214,-6.51786 -1.84408,2.8583 -3.14676,6.258 -5.625,8.48215 l -0.26785,21.42857 c 5.69688,5.5913 12.11734,9.79259 18.75,15.44644 z"
         style="fill:#79c800;fill-opacity:1;fill-rule:evenodd;stroke:none;stroke-width:1px;stroke-linecap:butt;stroke-linejoin:miter;stroke-opacity:1" />
    </g>
    <g
       id="g4205-7-4-0"
       transform="matrix(-0.5309017,1.0823306,-1.1169136,-0.51446338,1439.4095,-243.01065)">
      <path
         sodipodi:nodetypes="cccccccccc"
         inkscape:connector-curvature="0"
         id="path4201-7-9-6"
         d="m 664.4446,376.54129 c 6.17281,1.14239 11.91587,-3.38264 11.42857,-13.03572 -9.21946,-0.53307 -2.77111,-20.96788 -10,-25.89285 -8.62907,3.93466 -6.0179,9.76197 -11.875,12.85714 -7.19215,-6.49815 -14.89469,-16.85438 -21.875,-17.05357 -0.32349,5.35598 -0.21383,19.82674 6.60714,26.33928 -2.06607,5.47887 -12.54734,3.84982 -17.5,11.78571 3.50689,6.89259 22.55488,6.11118 22.85715,16.60715 7.42206,-0.65208 16.87656,3.65499 18.75,-10.53571 z"
         style="fill:#06b000;fill-opacity:1;fill-rule:evenodd;stroke:#000000;stroke-width:1px;stroke-linecap:butt;stroke-linejoin:miter;stroke-opacity:1" />
      <path
         sodipodi:nodetypes="cccccccccccccccccccccccccccc"
         inkscape:connector-curvature="0"
         id="path4203-9-5-8811"
         d="m 682.03389,390.29129 c -0.28869,0.89371 -0.32374,1.93235 -3.83929,0.98214 -5.91895,-3.85037 -9.41564,-10.60698 -15.98214,-15.44643 l -18.48215,-1.875 c -3.17588,2.59314 -5.64309,3.06024 -8.39285,4.375 2.53193,-1.57738 5.70669,-3.15476 6.69643,-4.73214 l -19.73215,-2.32143 c 7.66295,-0.71386 12.74644,0.0462 18.92857,0.17857 -2.19556,-2.26361 -6.05167,-4.11208 -9.10714,-6.16071 4.2655,2.0472 8.65025,4.0149 12.23214,6.51785 l 15.80358,1.69643 -11.25,-12.76785 c -3.04606,0.9303 -5.3986,0.64128 -7.5,-0.0893 2.34775,-0.21092 5.20782,-0.0376 6.69642,-0.89286 -6.46672,-8.30662 -10.11109,-17.01644 -15.08928,-25.53571 5.65413,8.30451 10.83923,17.31258 16.96428,24.91071 l 2.85715,-7.5 c 0.30639,3.04247 -0.61305,5.73471 -1.96429,8.30357 l 10.53572,12.41072 c 1.3161,-5.56798 0.0101,-13.14719 0.44642,-19.375 -2.24964,-1.45265 -3.06471,-3.98123 -4.46428,-6.07143 l 4.64286,4.91071 c 0.3217,-3.71456 0.82296,-7.60868 2.32142,-12.5 l -1.16071,12.14286 c 1.27988,-0.26818 3.98751,-4.34368 5.98214,-6.51786 -1.84408,2.8583 -3.14676,6.258 -5.625,8.48215 l -0.26785,21.42857 c 5.69688,5.5913 12.11734,9.79259 18.75,15.44644 z"
         style="fill:#79c800;fill-opacity:1;fill-rule:evenodd;stroke:none;stroke-width:1px;stroke-linecap:butt;stroke-linejoin:miter;stroke-opacity:1" />
    </g>
    <g
       id="g4205-7-4-30"
       transform="matrix(0.44937363,1.1164618,-1.1521352,0.4354597,745.30352,-673.35264)">
      <path
         sodipodi:nodetypes="cccccccccc"
         inkscape:connector-curvature="0"
         id="path4201-7-9-4"
         d="m 664.4446,376.54129 c 6.17281,1.14239 11.91587,-3.38264 11.42857,-13.03572 -9.21946,-0.53307 -2.77111,-20.96788 -10,-25.89285 -8.62907,3.93466 -6.0179,9.76197 -11.875,12.85714 -7.19215,-6.49815 -14.89469,-16.85438 -21.875,-17.05357 -0.32349,5.35598 -0.21383,19.82674 6.60714,26.33928 -2.06607,5.47887 -12.54734,3.84982 -17.5,11.78571 3.50689,6.89259 22.55488,6.11118 22.85715,16.60715 7.42206,-0.65208 16.87656,3.65499 18.75,-10.53571 z"
         style="fill:#06b000;fill-opacity:1;fill-rule:evenodd;stroke:#000000;stroke-width:1px;stroke-linecap:butt;stroke-linejoin:miter;stroke-opacity:1" />
      <path
         sodipodi:nodetypes="cccccccccccccccccccccccccccc"
         inkscape:connector-curvature="0"
         id="path4203-9-5-2"
         d="m 682.03389,390.29129 c -0.28869,0.89371 -0.32374,1.93235 -3.83929,0.98214 -5.91895,-3.85037 -9.41564,-10.60698 -15.98214,-15.44643 l -18.48215,-1.875 c -3.17588,2.59314 -5.64309,3.06024 -8.39285,4.375 2.53193,-1.57738 5.70669,-3.15476 6.69643,-4.73214 l -19.73215,-2.32143 c 7.66295,-0.71386 12.74644,0.0462 18.92857,0.17857 -2.19556,-2.26361 -6.05167,-4.11208 -9.10714,-6.16071 4.2655,2.0472 8.65025,4.0149 12.23214,6.51785 l 15.80358,1.69643 -11.25,-12.76785 c -3.04606,0.9303 -5.3986,0.64128 -7.5,-0.0893 2.34775,-0.21092 5.20782,-0.0376 6.69642,-0.89286 -6.46672,-8.30662 -10.11109,-17.01644 -15.08928,-25.53571 5.65413,8.30451 10.83923,17.31258 16.96428,24.91071 l 2.85715,-7.5 c 0.30639,3.04247 -0.61305,5.73471 -1.96429,8.30357 l 10.53572,12.41072 c 1.3161,-5.56798 0.0101,-13.14719 0.44642,-19.375 -2.24964,-1.45265 -3.06471,-3.98123 -4.46428,-6.07143 l 4.64286,4.91071 c 0.3217,-3.71456 0.82296,-7.60868 2.32142,-12.5 l -1.16071,12.14286 c 1.27988,-0.26818 3.98751,-4.34368 5.98214,-6.51786 -1.84408,2.8583 -3.14676,6.258 -5.625,8.48215 l -0.26785,21.42857 c 5.69688,5.5913 12.11734,9.79259 18.75,15.44644 z"
         style="fill:#79c800;fill-opacity:1;fill-rule:evenodd;stroke:none;stroke-width:1px;stroke-linecap:butt;stroke-linejoin:miter;stroke-opacity:1" />
    </g>
    <g
       id="g4205-7-4-30-8"
       transform="matrix(0.56413719,1.0664258,-1.1005006,0.54666982,563.55282,-716.86404)">
      <path
         sodipodi:nodetypes="cccccccccc"
         inkscape:connector-curvature="0"
         id="path4201-7-9-4-3"
         d="m 664.4446,376.54129 c 6.17281,1.14239 11.91587,-3.38264 11.42857,-13.03572 -9.21946,-0.53307 -2.77111,-20.96788 -10,-25.89285 -8.62907,3.93466 -6.0179,9.76197 -11.875,12.85714 -7.19215,-6.49815 -14.89469,-16.85438 -21.875,-17.05357 -0.32349,5.35598 -0.21383,19.82674 6.60714,26.33928 -2.06607,5.47887 -12.54734,3.84982 -17.5,11.78571 3.50689,6.89259 22.55488,6.11118 22.85715,16.60715 7.42206,-0.65208 16.87656,3.65499 18.75,-10.53571 z"
         style="fill:#06b000;fill-opacity:1;fill-rule:evenodd;stroke:#000000;stroke-width:1px;stroke-linecap:butt;stroke-linejoin:miter;stroke-opacity:1" />
      <path
         sodipodi:nodetypes="cccccccccccccccccccccccccccc"
         inkscape:connector-curvature="0"
         id="path4203-9-5-2-7"
         d="m 682.03389,390.29129 c -0.28869,0.89371 -0.32374,1.93235 -3.83929,0.98214 -5.91895,-3.85037 -9.41564,-10.60698 -15.98214,-15.44643 l -18.48215,-1.875 c -3.17588,2.59314 -5.64309,3.06024 -8.39285,4.375 2.53193,-1.57738 5.70669,-3.15476 6.69643,-4.73214 l -19.73215,-2.32143 c 7.66295,-0.71386 12.74644,0.0462 18.92857,0.17857 -2.19556,-2.26361 -6.05167,-4.11208 -9.10714,-6.16071 4.2655,2.0472 8.65025,4.0149 12.23214,6.51785 l 15.80358,1.69643 -11.25,-12.76785 c -3.04606,0.9303 -5.3986,0.64128 -7.5,-0.0893 2.34775,-0.21092 5.20782,-0.0376 6.69642,-0.89286 -6.46672,-8.30662 -10.11109,-17.01644 -15.08928,-25.53571 5.65413,8.30451 10.83923,17.31258 16.96428,24.91071 l 2.85715,-7.5 c 0.30639,3.04247 -0.61305,5.73471 -1.96429,8.30357 l 10.53572,12.41072 c 1.3161,-5.56798 0.0101,-13.14719 0.44642,-19.375 -2.24964,-1.45265 -3.06471,-3.98123 -4.46428,-6.07143 l 4.64286,4.91071 c 0.3217,-3.71456 0.82296,-7.60868 2.32142,-12.5 l -1.16071,12.14286 c 1.27988,-0.26818 3.98751,-4.34368 5.98214,-6.51786 -1.84408,2.8583 -3.14676,6.258 -5.625,8.48215 l -0.26785,21.42857 c 5.69688,5.5913 12.11734,9.79259 18.75,15.44644 z"
         style="fill:#79c800;fill-opacity:1;fill-rule:evenodd;stroke:none;stroke-width:1px;stroke-linecap:butt;stroke-linejoin:miter;stroke-opacity:1" />
    </g>
    <g
       id="g4205-7-4-30-1"
       transform="matrix(0.95458848,0.76185852,-0.78620167,0.9250316,106.50936,-668.46946)">
      <path
         sodipodi:nodetypes="cccccccccc"
         inkscape:connector-curvature="0"
         id="path4201-7-9-4-4"
         d="m 664.4446,376.54129 c 6.17281,1.14239 11.91587,-3.38264 11.42857,-13.03572 -9.21946,-0.53307 -2.77111,-20.96788 -10,-25.89285 -8.62907,3.93466 -6.0179,9.76197 -11.875,12.85714 -7.19215,-6.49815 -14.89469,-16.85438 -21.875,-17.05357 -0.32349,5.35598 -0.21383,19.82674 6.60714,26.33928 -2.06607,5.47887 -12.54734,3.84982 -17.5,11.78571 3.50689,6.89259 22.55488,6.11118 22.85715,16.60715 7.42206,-0.65208 16.87656,3.65499 18.75,-10.53571 z"
         style="fill:#06b000;fill-opacity:1;fill-rule:evenodd;stroke:#000000;stroke-width:1px;stroke-linecap:butt;stroke-linejoin:miter;stroke-opacity:1" />
      <path
         sodipodi:nodetypes="cccccccccccccccccccccccccccc"
         inkscape:connector-curvature="0"
         id="path4203-9-5-2-1"
         d="m 682.03389,390.29129 c -0.28869,0.89371 -0.32374,1.93235 -3.83929,0.98214 -5.91895,-3.85037 -9.41564,-10.60698 -15.98214,-15.44643 l -18.48215,-1.875 c -3.17588,2.59314 -5.64309,3.06024 -8.39285,4.375 2.53193,-1.57738 5.70669,-3.15476 6.69643,-4.73214 l -19.73215,-2.32143 c 7.66295,-0.71386 12.74644,0.0462 18.92857,0.17857 -2.19556,-2.26361 -6.05167,-4.11208 -9.10714,-6.16071 4.2655,2.0472 8.65025,4.0149 12.23214,6.51785 l 15.80358,1.69643 -11.25,-12.76785 c -3.04606,0.9303 -5.3986,0.64128 -7.5,-0.0893 2.34775,-0.21092 5.20782,-0.0376 6.69642,-0.89286 -6.46672,-8.30662 -10.11109,-17.01644 -15.08928,-25.53571 5.65413,8.30451 10.83923,17.31258 16.96428,24.91071 l 2.85715,-7.5 c 0.30639,3.04247 -0.61305,5.73471 -1.96429,8.30357 l 10.53572,12.41072 c 1.3161,-5.56798 0.0101,-13.14719 0.44642,-19.375 -2.24964,-1.45265 -3.06471,-3.98123 -4.46428,-6.07143 l 4.64286,4.91071 c 0.3217,-3.71456 0.82296,-7.60868 2.32142,-12.5 l -1.16071,12.14286 c 1.27988,-0.26818 3.98751,-4.34368 5.98214,-6.51786 -1.84408,2.8583 -3.14676,6.258 -5.625,8.48215 l -0.26785,21.42857 c 5.69688,5.5913 12.11734,9.79259 18.75,15.44644 z"
         style="fill:#79c800;fill-opacity:1;fill-rule:evenodd;stroke:none;stroke-width:1px;stroke-linecap:butt;stroke-linejoin:miter;stroke-opacity:1" />
    </g>
    <g
       id="g4205-7-4-30-5"
       transform="matrix(1.2337864,0.08178877,-0.08440212,1.1955846,-417.44252,-305.48377)">
      <path
         sodipodi:nodetypes="cccccccccc"
         inkscape:connector-curvature="0"
         id="path4201-7-9-4-7"
         d="m 664.4446,376.54129 c 6.17281,1.14239 11.91587,-3.38264 11.42857,-13.03572 -9.21946,-0.53307 -2.77111,-20.96788 -10,-25.89285 -8.62907,3.93466 -6.0179,9.76197 -11.875,12.85714 -7.19215,-6.49815 -14.89469,-16.85438 -21.875,-17.05357 -0.32349,5.35598 -0.21383,19.82674 6.60714,26.33928 -2.06607,5.47887 -12.54734,3.84982 -17.5,11.78571 3.50689,6.89259 22.55488,6.11118 22.85715,16.60715 7.42206,-0.65208 16.87656,3.65499 18.75,-10.53571 z"
         style="fill:#06b000;fill-opacity:1;fill-rule:evenodd;stroke:#000000;stroke-width:1px;stroke-linecap:butt;stroke-linejoin:miter;stroke-opacity:1" />
      <path
         sodipodi:nodetypes="cccccccccccccccccccccccccccc"
         inkscape:connector-curvature="0"
         id="path4203-9-5-2-4"
         d="m 682.03389,390.29129 c -0.28869,0.89371 -0.32374,1.93235 -3.83929,0.98214 -5.91895,-3.85037 -9.41564,-10.60698 -15.98214,-15.44643 l -18.48215,-1.875 c -3.17588,2.59314 -5.64309,3.06024 -8.39285,4.375 2.53193,-1.57738 5.70669,-3.15476 6.69643,-4.73214 l -19.73215,-2.32143 c 7.66295,-0.71386 12.74644,0.0462 18.92857,0.17857 -2.19556,-2.26361 -6.05167,-4.11208 -9.10714,-6.16071 4.2655,2.0472 8.65025,4.0149 12.23214,6.51785 l 15.80358,1.69643 -11.25,-12.76785 c -3.04606,0.9303 -5.3986,0.64128 -7.5,-0.0893 2.34775,-0.21092 5.20782,-0.0376 6.69642,-0.89286 -6.46672,-8.30662 -10.11109,-17.01644 -15.08928,-25.53571 5.65413,8.30451 10.83923,17.31258 16.96428,24.91071 l 2.85715,-7.5 c 0.30639,3.04247 -0.61305,5.73471 -1.96429,8.30357 l 10.53572,12.41072 c 1.3161,-5.56798 0.0101,-13.14719 0.44642,-19.375 -2.24964,-1.45265 -3.06471,-3.98123 -4.46428,-6.07143 l 4.64286,4.91071 c 0.3217,-3.71456 0.82296,-7.60868 2.32142,-12.5 l -1.16071,12.14286 c 1.27988,-0.26818 3.98751,-4.34368 5.98214,-6.51786 -1.84408,2.8583 -3.14676,6.258 -5.625,8.48215 l -0.26785,21.42857 c 5.69688,5.5913 12.11734,9.79259 18.75,15.44644 z"
         style="fill:#79c800;fill-opacity:1;fill-rule:evenodd;stroke:none;stroke-width:1px;stroke-linecap:butt;stroke-linejoin:miter;stroke-opacity:1" />
    </g>
    <g
       id="g4205-7-4-30-14"
       transform="matrix(0.93138432,-0.80883215,0.80827727,0.88925536,-605.13266,454.73685)"
       inkscape:transform-center-x="39.762541"
       inkscape:transform-center-y="-2.6621119">
      <path
         sodipodi:nodetypes="cccccccccc"
         inkscape:connector-curvature="0"
         id="path4201-7-9-4-34"
         d="m 664.4446,376.54129 c 6.17281,1.14239 11.91587,-3.38264 11.42857,-13.03572 -9.21946,-0.53307 -2.77111,-20.96788 -10,-25.89285 -8.62907,3.93466 -6.0179,9.76197 -11.875,12.85714 -7.19215,-6.49815 -14.89469,-16.85438 -21.875,-17.05357 -0.32349,5.35598 -0.21383,19.82674 6.60714,26.33928 -2.06607,5.47887 -12.54734,3.84982 -17.5,11.78571 3.50689,6.89259 22.55488,6.11118 22.85715,16.60715 7.42206,-0.65208 16.87656,3.65499 18.75,-10.53571 z"
         style="fill:#06b000;fill-opacity:1;fill-rule:evenodd;stroke:#000000;stroke-width:1px;stroke-linecap:butt;stroke-linejoin:miter;stroke-opacity:1" />
      <path
         sodipodi:nodetypes="cccccccccccccccccccccccccccc"
         inkscape:connector-curvature="0"
         id="path4203-9-5-2-2"
         d="m 682.03389,390.29129 c -0.28869,0.89371 -0.32374,1.93235 -3.83929,0.98214 -5.91895,-3.85037 -9.41564,-10.60698 -15.98214,-15.44643 l -18.48215,-1.875 c -3.17588,2.59314 -5.64309,3.06024 -8.39285,4.375 2.53193,-1.57738 5.70669,-3.15476 6.69643,-4.73214 l -19.73215,-2.32143 c 7.66295,-0.71386 12.74644,0.0462 18.92857,0.17857 -2.19556,-2.26361 -6.05167,-4.11208 -9.10714,-6.16071 4.2655,2.0472 8.65025,4.0149 12.23214,6.51785 l 15.80358,1.69643 -11.25,-12.76785 c -3.04606,0.9303 -5.3986,0.64128 -7.5,-0.0893 2.34775,-0.21092 5.20782,-0.0376 6.69642,-0.89286 -6.46672,-8.30662 -10.11109,-17.01644 -15.08928,-25.53571 5.65413,8.30451 10.83923,17.31258 16.96428,24.91071 l 2.85715,-7.5 c 0.30639,3.04247 -0.61305,5.73471 -1.96429,8.30357 l 10.53572,12.41072 c 1.3161,-5.56798 0.0101,-13.14719 0.44642,-19.375 -2.24964,-1.45265 -3.06471,-3.98123 -4.46428,-6.07143 l 4.64286,4.91071 c 0.3217,-3.71456 0.82296,-7.60868 2.32142,-12.5 l -1.16071,12.14286 c 1.27988,-0.26818 3.98751,-4.34368 5.98214,-6.51786 -1.84408,2.8583 -3.14676,6.258 -5.625,8.48215 l -0.26785,21.42857 c 5.69688,5.5913 12.11734,9.79259 18.75,15.44644 z"
         style="fill:#79c800;fill-opacity:1;fill-rule:evenodd;stroke:none;stroke-width:1px;stroke-linecap:butt;stroke-linejoin:miter;stroke-opacity:1" />
    </g>
  </g>
</svg>
